<svg xmlns="http://www.w3.org/2000/svg" xmlns:xlink="http://www.w3.org/1999/xlink" width="60" zoomAndPan="magnify" viewBox="0 0 45 44.999999" height="60" preserveAspectRatio="xMidYMid meet" version="1.0"><defs><clipPath id="eb419a1102"><path d="M 7.550781 7.386719 L 15 7.386719 L 15 15 L 7.550781 15 Z M 7.550781 7.386719 " clip-rule="nonzero"/></clipPath><clipPath id="e600fbdb4c"><path d="M 32 7.386719 L 34 7.386719 L 34 11 L 32 11 Z M 32 7.386719 " clip-rule="nonzero"/></clipPath><clipPath id="beeea51ac4"><path d="M 18 13 L 25 13 L 25 21 L 18 21 Z M 18 13 " clip-rule="nonzero"/></clipPath><clipPath id="a88c915a5c"><path d="M 16.289062 16.585938 L 23.21875 12.109375 L 26.472656 17.148438 L 19.542969 21.625 Z M 16.289062 16.585938 " clip-rule="nonzero"/></clipPath><clipPath id="6a4f64fa11"><path d="M 16.289062 16.585938 L 23.21875 12.109375 L 26.472656 17.148438 L 19.542969 21.625 Z M 16.289062 16.585938 " clip-rule="nonzero"/></clipPath><clipPath id="73528cb780"><path d="M 18 14 L 24 14 L 24 20 L 18 20 Z M 18 14 " clip-rule="nonzero"/></clipPath><clipPath id="7d5672682e"><path d="M 16.289062 16.585938 L 23.21875 12.109375 L 26.472656 17.148438 L 19.542969 21.625 Z M 16.289062 16.585938 " clip-rule="nonzero"/></clipPath><clipPath id="d44ce21e77"><path d="M 16.289062 16.585938 L 23.21875 12.109375 L 26.472656 17.148438 L 19.542969 21.625 Z M 16.289062 16.585938 " clip-rule="nonzero"/></clipPath><clipPath id="3b0ab41a27"><path d="M 18 14 L 25 14 L 25 21 L 18 21 Z M 18 14 " clip-rule="nonzero"/></clipPath><clipPath id="cad500a948"><path d="M 16.289062 16.585938 L 23.21875 12.109375 L 26.472656 17.148438 L 19.542969 21.625 Z M 16.289062 16.585938 " clip-rule="nonzero"/></clipPath><clipPath id="170c0a793f"><path d="M 16.289062 16.585938 L 23.21875 12.109375 L 26.472656 17.148438 L 19.542969 21.625 Z M 16.289062 16.585938 " clip-rule="nonzero"/></clipPath></defs><rect x="-4.5" width="54" fill="#ffffff" y="-4.5" height="53.999999" fill-opacity="1"/><rect x="-4.5" width="54" fill="#fffffe" y="-4.5" height="53.999999" fill-opacity="1"/><g clip-path="url(#eb419a1102)"><path fill="#1d1d1e" d="M 13.378906 14.941406 L 7.550781 9.488281 C 7.574219 7.871094 9.066406 7.808594 9.066406 7.808594 L 14.726562 13.527344 C 13.855469 13.875 13.511719 14.546875 13.378906 14.941406 Z M 13.378906 14.941406 " fill-opacity="1" fill-rule="nonzero"/></g><path fill="#1d1d1e" d="M 27.628906 21.925781 C 27.035156 23.179688 24.75 26.683594 18.582031 24.472656 C 12.296875 21.894531 14.429688 16.351562 14.429688 16.351562 C 14.46875 16.253906 14.519531 16.160156 14.582031 16.070312 L 13.707031 15.253906 C 13.746094 15.050781 13.988281 14.175781 15.035156 13.84375 L 16.308594 15.128906 C 17.820312 14.835938 20.015625 15.132812 22.277344 16.039062 C 22.871094 16.277344 23.433594 16.546875 23.957031 16.832031 C 23.960938 16.96875 23.972656 17.097656 23.984375 17.234375 C 23.421875 16.921875 22.804688 16.625 22.148438 16.359375 C 18.738281 14.988281 15.519531 15 14.964844 16.386719 C 14.410156 17.769531 16.722656 20 20.132812 21.375 C 20.277344 21.433594 20.425781 21.488281 20.570312 21.542969 L 21.503906 21.914062 C 22.527344 22.324219 23.753906 22.410156 24.601562 22.410156 C 25.199219 22.410156 25.605469 22.371094 25.621094 22.367188 C 25.695312 22.351562 26.542969 22.277344 27.628906 21.925781 Z M 27.628906 21.925781 " fill-opacity="1" fill-rule="nonzero"/><path fill="#f8951d" d="M 33.945312 10.484375 C 33.945312 10.484375 32.738281 11.8125 30.222656 12.230469 C 27.015625 12.546875 25.632812 14.894531 25.632812 14.894531 C 25.632812 14.894531 25.441406 14.441406 26.066406 13.601562 C 26.066406 13.601562 23.746094 14.066406 24.5 18.039062 C 24.582031 18.460938 24.589844 18.820312 24.535156 19.132812 C 24.535156 19.132812 24.398438 20.902344 21.644531 21.539062 C 22.617188 21.925781 23.789062 22.003906 24.601562 22.003906 C 25.183594 22.003906 25.582031 21.964844 25.582031 21.964844 C 25.582031 21.964844 28.679688 21.699219 30.667969 19.675781 C 32.242188 18.0625 32.253906 16.546875 32.1875 15.992188 C 32.183594 15.992188 31.714844 16.972656 30.632812 17.398438 L 30.628906 17.394531 C 30.628906 17.394531 30.492188 17.433594 30.351562 17.433594 C 30.097656 17.433594 29.800781 17.308594 30.113281 16.636719 C 30.480469 16.175781 31.058594 15.675781 31.964844 15.292969 C 34.1875 14.351562 33.945312 10.484375 33.945312 10.484375 Z M 30.875 18.132812 C 30.875 18.132812 29.433594 21.261719 24.953125 20.839844 C 24.953125 20.839844 25.875 19.640625 25.511719 17.699219 C 25.269531 16.035156 26.636719 14.269531 29.488281 14.035156 C 29.488281 14.035156 27.457031 15.191406 27.660156 17.34375 C 27.851562 19.484375 30.875 18.132812 30.875 18.132812 Z M 30.875 18.132812 " fill-opacity="1" fill-rule="nonzero"/><g clip-path="url(#e600fbdb4c)"><path fill="#f8951d" d="M 33.300781 8.972656 C 33.355469 7.628906 33.921875 7.402344 33.921875 7.402344 C 33.921875 7.402344 32.554688 7.566406 32.5 8.554688 C 32.445312 9.550781 32.621094 9.753906 32.144531 10.433594 C 32.144531 10.433594 33.25 10.316406 33.300781 8.972656 Z M 33.300781 8.972656 " fill-opacity="1" fill-rule="nonzero"/></g><path fill="#f8951d" d="M 27.175781 11.960938 C 27.667969 11.5 27.304688 10.925781 27.304688 10.925781 C 27.304688 10.925781 27.410156 11.257812 26.933594 11.625 C 26.457031 11.992188 26.726562 12.53125 26.726562 12.53125 C 26.726562 12.53125 26.6875 12.421875 27.175781 11.960938 Z M 27.175781 11.960938 " fill-opacity="1" fill-rule="nonzero"/><g clip-path="url(#beeea51ac4)"><g clip-path="url(#a88c915a5c)"><g clip-path="url(#6a4f64fa11)"><path fill="#e74747" d="M 21.933594 13.175781 C 22.296875 13.09375 22.605469 13.097656 22.828125 13.113281 C 23.027344 13.15625 23.507812 13.292969 23.910156 13.722656 C 24.484375 14.328125 24.480469 15.070312 24.476562 15.234375 C 24.441406 15.777344 24.308594 16.75 23.738281 17.808594 C 23.136719 18.929688 22.339844 19.609375 21.890625 19.941406 C 21.066406 20.546875 19.53125 20.808594 18.785156 20.15625 C 18.347656 19.773438 18.230469 19.21875 18.230469 19.21875 C 18.167969 18.914062 18.203125 18.65625 18.234375 18.5 C 18.320312 18.253906 18.425781 17.992188 18.5625 17.71875 C 18.9375 16.964844 19.398438 16.398438 19.792969 15.992188 C 19.761719 15.761719 19.742188 15.367188 19.886719 14.917969 C 20.15625 14.105469 20.789062 13.6875 20.980469 13.566406 C 21.1875 13.441406 21.507812 13.269531 21.933594 13.175781 Z M 21.933594 13.175781 " fill-opacity="1" fill-rule="nonzero"/></g></g></g><g clip-path="url(#73528cb780)"><g clip-path="url(#7d5672682e)"><g clip-path="url(#d44ce21e77)"><path fill="#1d1d1e" d="M 18.9375 18.445312 L 19.097656 18.34375 C 19.128906 18.320312 19.171875 18.324219 19.199219 18.351562 C 19.382812 18.511719 19.601562 18.679688 19.851562 18.847656 C 20.226562 19.09375 20.585938 19.269531 20.898438 19.398438 C 20.949219 19.417969 20.964844 19.480469 20.9375 19.523438 C 20.902344 19.578125 20.867188 19.632812 20.828125 19.683594 C 20.808594 19.71875 20.765625 19.730469 20.726562 19.714844 C 20.394531 19.578125 20.007812 19.386719 19.601562 19.109375 C 19.339844 18.933594 19.113281 18.753906 18.925781 18.578125 C 18.886719 18.542969 18.890625 18.476562 18.9375 18.445312 Z M 19.578125 17.128906 C 19.558594 17.160156 19.539062 17.191406 19.515625 17.21875 C 19.488281 17.257812 19.496094 17.308594 19.53125 17.339844 C 19.800781 17.5625 20.132812 17.804688 20.539062 18.027344 C 21.109375 18.34375 21.640625 18.53125 22.066406 18.640625 C 22.105469 18.652344 22.148438 18.632812 22.167969 18.59375 C 22.1875 18.550781 22.207031 18.511719 22.226562 18.46875 C 22.25 18.421875 22.226562 18.367188 22.175781 18.347656 C 21.730469 18.175781 21.242188 17.960938 20.734375 17.699219 C 20.359375 17.5 20.015625 17.300781 19.699219 17.105469 C 19.660156 17.078125 19.605469 17.089844 19.578125 17.128906 Z M 20.324219 15.878906 C 20.308594 15.921875 20.289062 15.964844 20.269531 16.003906 C 20.253906 16.039062 20.265625 16.074219 20.292969 16.097656 C 20.574219 16.304688 20.953125 16.542969 21.425781 16.746094 C 21.96875 16.972656 22.457031 17.078125 22.832031 17.128906 C 22.867188 17.132812 22.898438 17.113281 22.910156 17.082031 C 22.941406 17.011719 22.96875 16.9375 22.996094 16.867188 C 23.015625 16.820312 22.988281 16.773438 22.941406 16.765625 C 22.5 16.675781 21.988281 16.539062 21.4375 16.316406 C 21.058594 16.167969 20.722656 16.003906 20.433594 15.84375 C 20.390625 15.824219 20.34375 15.839844 20.324219 15.878906 Z M 20.46875 14.550781 C 20.441406 14.59375 20.460938 14.648438 20.507812 14.667969 C 20.875 14.8125 21.273438 14.949219 21.703125 15.074219 C 22.433594 15.289062 23.113281 15.421875 23.71875 15.5 C 23.761719 15.507812 23.800781 15.480469 23.808594 15.4375 C 23.832031 15.34375 23.851562 15.25 23.875 15.160156 C 23.882812 15.113281 23.851562 15.066406 23.804688 15.058594 C 23.300781 14.992188 22.761719 14.898438 22.1875 14.773438 C 21.636719 14.652344 21.121094 14.515625 20.648438 14.371094 C 20.609375 14.359375 20.574219 14.375 20.554688 14.40625 C 20.523438 14.453125 20.496094 14.5 20.46875 14.550781 Z M 20.46875 14.550781 " fill-opacity="1" fill-rule="nonzero"/></g></g></g><g clip-path="url(#3b0ab41a27)"><g clip-path="url(#cad500a948)"><g clip-path="url(#170c0a793f)"><path fill="#1d1d1e" d="M 24.636719 15.476562 C 24.609375 16.039062 24.492188 17.03125 23.9375 18.113281 C 23.347656 19.253906 22.558594 19.9375 22.109375 20.273438 C 21.289062 20.882812 19.734375 21.121094 18.96875 20.4375 C 18.777344 20.265625 18.644531 20.066406 18.554688 19.890625 C 18.609375 19.960938 18.675781 20.027344 18.746094 20.09375 C 19.511719 20.777344 21.066406 20.539062 21.886719 19.925781 C 22.335938 19.59375 23.125 18.910156 23.714844 17.769531 C 24.269531 16.6875 24.386719 15.691406 24.414062 15.132812 C 24.414062 15.007812 24.40625 14.539062 24.152344 14.046875 C 24.628906 14.648438 24.636719 15.320312 24.636719 15.476562 Z M 24.636719 15.476562 " fill-opacity="1" fill-rule="nonzero"/></g></g></g><path fill="#d42c00" d="M 12.347656 31.40625 C 11.722656 31.40625 11.179688 31.296875 10.722656 31.078125 C 10.273438 30.851562 9.925781 30.527344 9.675781 30.109375 C 9.433594 29.695312 9.316406 29.214844 9.316406 28.671875 C 9.316406 27.902344 9.457031 27.226562 9.738281 26.640625 C 10.027344 26.046875 10.417969 25.589844 10.910156 25.265625 C 11.410156 24.945312 11.960938 24.78125 12.566406 24.78125 C 13.117188 24.78125 13.539062 24.929688 13.832031 25.21875 C 14.121094 25.5 14.269531 25.875 14.269531 26.34375 C 14.269531 26.667969 14.210938 26.929688 14.097656 27.125 C 13.992188 27.3125 13.835938 27.40625 13.628906 27.40625 C 13.480469 27.40625 13.367188 27.375 13.285156 27.3125 C 13.199219 27.242188 13.160156 27.136719 13.160156 27 C 13.160156 26.960938 13.167969 26.875 13.191406 26.75 C 13.222656 26.59375 13.238281 26.46875 13.238281 26.375 C 13.238281 25.898438 12.988281 25.65625 12.488281 25.65625 C 12.144531 25.65625 11.816406 25.773438 11.503906 26 C 11.191406 26.21875 10.933594 26.546875 10.738281 26.984375 C 10.550781 27.414062 10.457031 27.929688 10.457031 28.53125 C 10.457031 29.148438 10.628906 29.625 10.972656 29.96875 C 11.324219 30.3125 11.839844 30.484375 12.519531 30.484375 C 12.851562 30.484375 13.191406 30.445312 13.535156 30.359375 C 13.886719 30.265625 14.273438 30.132812 14.691406 29.953125 C 14.761719 29.921875 14.824219 29.90625 14.878906 29.90625 C 14.960938 29.90625 15.023438 29.9375 15.066406 30 C 15.105469 30.0625 15.128906 30.148438 15.128906 30.25 C 15.128906 30.5625 14.960938 30.796875 14.628906 30.953125 C 14.253906 31.109375 13.867188 31.226562 13.472656 31.296875 C 13.074219 31.371094 12.699219 31.40625 12.347656 31.40625 Z M 12.347656 31.40625 " fill-opacity="1" fill-rule="nonzero"/><path fill="#d42c00" d="M 17.101562 31.40625 C 16.640625 31.40625 16.226562 31.308594 15.851562 31.109375 C 15.484375 30.902344 15.195312 30.59375 14.976562 30.1875 C 14.757812 29.78125 14.648438 29.304688 14.648438 28.75 C 14.648438 27.960938 14.789062 27.261719 15.070312 26.65625 C 15.359375 26.054688 15.75 25.589844 16.242188 25.265625 C 16.742188 24.945312 17.292969 24.78125 17.898438 24.78125 C 18.355469 24.78125 18.773438 24.886719 19.148438 25.09375 C 19.523438 25.304688 19.8125 25.609375 20.023438 26.015625 C 20.242188 26.414062 20.351562 26.890625 20.351562 27.453125 C 20.351562 28.234375 20.203125 28.929688 19.914062 29.53125 C 19.632812 30.136719 19.242188 30.601562 18.742188 30.921875 C 18.25 31.246094 17.703125 31.40625 17.101562 31.40625 Z M 17.179688 30.5 C 17.585938 30.5 17.9375 30.375 18.242188 30.125 C 18.554688 29.875 18.792969 29.53125 18.960938 29.09375 C 19.125 28.648438 19.210938 28.140625 19.210938 27.578125 C 19.210938 26.964844 19.078125 26.496094 18.820312 26.171875 C 18.558594 25.851562 18.226562 25.6875 17.820312 25.6875 C 17.421875 25.6875 17.070312 25.8125 16.757812 26.0625 C 16.453125 26.3125 16.214844 26.664062 16.039062 27.109375 C 15.871094 27.546875 15.789062 28.046875 15.789062 28.609375 C 15.789062 29.226562 15.917969 29.695312 16.179688 30.015625 C 16.4375 30.339844 16.773438 30.5 17.179688 30.5 Z M 17.179688 30.5 " fill-opacity="1" fill-rule="nonzero"/><path fill="#d42c00" d="M 25.503906 31.40625 C 25.042969 31.40625 24.628906 31.308594 24.253906 31.109375 C 23.886719 30.902344 23.597656 30.59375 23.378906 30.1875 C 23.160156 29.78125 23.050781 29.304688 23.050781 28.75 C 23.050781 27.960938 23.191406 27.261719 23.472656 26.65625 C 23.761719 26.054688 24.152344 25.589844 24.644531 25.265625 C 25.144531 24.945312 25.695312 24.78125 26.300781 24.78125 C 26.757812 24.78125 27.175781 24.886719 27.550781 25.09375 C 27.925781 25.304688 28.214844 25.609375 28.425781 26.015625 C 28.644531 26.414062 28.753906 26.890625 28.753906 27.453125 C 28.753906 28.234375 28.605469 28.929688 28.316406 29.53125 C 28.035156 30.136719 27.644531 30.601562 27.144531 30.921875 C 26.652344 31.246094 26.105469 31.40625 25.503906 31.40625 Z M 25.582031 30.5 C 25.988281 30.5 26.339844 30.375 26.644531 30.125 C 26.957031 29.875 27.195312 29.53125 27.363281 29.09375 C 27.527344 28.648438 27.613281 28.140625 27.613281 27.578125 C 27.613281 26.964844 27.480469 26.496094 27.222656 26.171875 C 26.960938 25.851562 26.628906 25.6875 26.222656 25.6875 C 25.824219 25.6875 25.472656 25.8125 25.160156 26.0625 C 24.855469 26.3125 24.617188 26.664062 24.441406 27.109375 C 24.273438 27.546875 24.191406 28.046875 24.191406 28.609375 C 24.191406 29.226562 24.320312 29.695312 24.582031 30.015625 C 24.839844 30.339844 25.175781 30.5 25.582031 30.5 Z M 25.582031 30.5 " fill-opacity="1" fill-rule="nonzero"/><path fill="#d42c00" d="M 36.972656 29.640625 C 37.035156 29.640625 37.085938 29.671875 37.128906 29.734375 C 37.167969 29.796875 37.191406 29.882812 37.191406 29.984375 C 37.191406 30.195312 37.136719 30.355469 37.035156 30.46875 C 36.792969 30.773438 36.542969 31.007812 36.285156 31.171875 C 36.035156 31.328125 35.730469 31.40625 35.378906 31.40625 C 34.992188 31.40625 34.679688 31.296875 34.441406 31.078125 C 34.199219 30.851562 33.972656 30.496094 33.753906 30.015625 C 33.597656 29.671875 33.464844 29.417969 33.363281 29.25 C 33.269531 29.085938 33.167969 28.96875 33.066406 28.90625 C 32.972656 28.835938 32.851562 28.789062 32.707031 28.765625 L 32.613281 29.34375 C 32.507812 30.085938 32.292969 30.621094 31.972656 30.953125 C 31.660156 31.277344 31.230469 31.4375 30.691406 31.4375 C 30.324219 31.4375 30.003906 31.355469 29.722656 31.1875 C 29.449219 31.011719 29.257812 30.789062 29.144531 30.515625 C 29.113281 30.421875 29.097656 30.320312 29.097656 30.203125 C 29.097656 30.046875 29.132812 29.914062 29.207031 29.796875 C 29.277344 29.683594 29.371094 29.625 29.488281 29.625 C 29.550781 29.625 29.601562 29.648438 29.644531 29.6875 C 29.695312 29.71875 29.742188 29.777344 29.785156 29.859375 C 29.949219 30.164062 30.089844 30.375 30.207031 30.5 C 30.332031 30.617188 30.488281 30.671875 30.675781 30.671875 C 30.871094 30.671875 31.042969 30.578125 31.191406 30.390625 C 31.347656 30.195312 31.457031 29.898438 31.519531 29.5 L 31.628906 28.765625 L 31.503906 28.765625 C 31.378906 28.765625 31.277344 28.734375 31.207031 28.671875 C 31.144531 28.601562 31.113281 28.507812 31.113281 28.390625 C 31.113281 28.257812 31.148438 28.148438 31.222656 28.0625 C 31.292969 27.980469 31.382812 27.9375 31.488281 27.9375 L 31.738281 27.9375 C 31.777344 27.6875 31.804688 27.515625 31.816406 27.421875 L 32.066406 25.65625 C 31.929688 25.648438 31.800781 25.640625 31.675781 25.640625 C 31.238281 25.640625 30.902344 25.71875 30.675781 25.875 C 30.445312 26.023438 30.332031 26.242188 30.332031 26.53125 C 30.332031 26.65625 30.347656 26.761719 30.378906 26.84375 C 30.410156 26.929688 30.445312 27.015625 30.488281 27.109375 C 30.507812 27.152344 30.519531 27.199219 30.519531 27.25 C 30.519531 27.367188 30.464844 27.464844 30.363281 27.546875 C 30.257812 27.632812 30.136719 27.671875 30.003906 27.671875 C 29.835938 27.671875 29.714844 27.605469 29.644531 27.46875 C 29.488281 27.1875 29.410156 26.890625 29.410156 26.578125 C 29.410156 26.246094 29.496094 25.949219 29.675781 25.6875 C 29.851562 25.417969 30.121094 25.199219 30.488281 25.03125 C 30.851562 24.867188 31.300781 24.78125 31.832031 24.78125 C 32.070312 24.78125 32.285156 24.796875 32.472656 24.828125 C 32.667969 24.851562 32.882812 24.898438 33.113281 24.96875 C 33.371094 25.054688 33.503906 25.199219 33.503906 25.40625 C 33.503906 25.6875 33.378906 25.828125 33.128906 25.828125 L 32.832031 27.921875 C 33.433594 27.859375 33.925781 27.601562 34.300781 27.140625 C 34.683594 26.683594 35.007812 26.0625 35.269531 25.28125 C 35.308594 25.136719 35.386719 25.027344 35.503906 24.953125 C 35.617188 24.871094 35.757812 24.828125 35.925781 24.828125 C 36.070312 24.828125 36.183594 24.859375 36.269531 24.921875 C 36.351562 24.984375 36.394531 25.078125 36.394531 25.203125 C 36.394531 25.234375 36.382812 25.292969 36.363281 25.375 C 36.101562 26.230469 35.726562 26.914062 35.238281 27.421875 C 34.757812 27.921875 34.230469 28.257812 33.660156 28.421875 C 33.855469 28.464844 34.019531 28.53125 34.144531 28.625 C 34.277344 28.71875 34.386719 28.839844 34.472656 28.984375 C 34.566406 29.121094 34.664062 29.308594 34.769531 29.546875 C 34.933594 29.890625 35.085938 30.136719 35.222656 30.28125 C 35.367188 30.417969 35.535156 30.484375 35.722656 30.484375 C 35.886719 30.484375 36.042969 30.433594 36.191406 30.328125 C 36.347656 30.214844 36.535156 30.023438 36.753906 29.75 C 36.816406 29.679688 36.886719 29.640625 36.972656 29.640625 Z M 36.972656 29.640625 " fill-opacity="1" fill-rule="nonzero"/><path fill="#df7b12" d="M 14.917969 35.84375 C 14.824219 35.84375 14.753906 35.820312 14.714844 35.78125 C 14.671875 35.730469 14.652344 35.65625 14.652344 35.5625 L 14.652344 33.640625 C 14.652344 33.558594 14.671875 33.496094 14.714844 33.453125 C 14.753906 33.402344 14.824219 33.375 14.917969 33.375 C 15 33.375 15.0625 33.402344 15.105469 33.453125 C 15.144531 33.496094 15.167969 33.558594 15.167969 33.640625 L 15.167969 34.453125 L 15.183594 34.453125 L 16.089844 33.5 C 16.128906 33.460938 16.171875 33.429688 16.214844 33.40625 C 16.253906 33.386719 16.300781 33.375 16.355469 33.375 C 16.4375 33.375 16.496094 33.398438 16.527344 33.4375 C 16.566406 33.480469 16.582031 33.527344 16.574219 33.578125 C 16.574219 33.632812 16.546875 33.683594 16.496094 33.734375 L 15.589844 34.671875 L 15.589844 34.4375 L 16.558594 35.453125 C 16.609375 35.515625 16.636719 35.578125 16.636719 35.640625 C 16.636719 35.695312 16.613281 35.742188 16.574219 35.78125 C 16.53125 35.820312 16.472656 35.84375 16.402344 35.84375 C 16.328125 35.84375 16.269531 35.832031 16.230469 35.8125 C 16.199219 35.78125 16.15625 35.742188 16.105469 35.6875 L 15.183594 34.703125 L 15.167969 34.703125 L 15.167969 35.5625 C 15.167969 35.65625 15.144531 35.730469 15.105469 35.78125 C 15.0625 35.820312 15 35.84375 14.917969 35.84375 Z M 14.917969 35.84375 " fill-opacity="1" fill-rule="nonzero"/><path fill="#df7b12" d="M 17.441406 35.84375 C 17.347656 35.84375 17.277344 35.820312 17.238281 35.78125 C 17.195312 35.730469 17.175781 35.65625 17.175781 35.5625 L 17.175781 33.640625 C 17.175781 33.558594 17.195312 33.496094 17.238281 33.453125 C 17.277344 33.402344 17.347656 33.375 17.441406 33.375 C 17.523438 33.375 17.585938 33.402344 17.628906 33.453125 C 17.667969 33.496094 17.691406 33.558594 17.691406 33.640625 L 17.691406 35.5625 C 17.691406 35.65625 17.667969 35.730469 17.628906 35.78125 C 17.585938 35.820312 17.523438 35.84375 17.441406 35.84375 Z M 17.441406 35.84375 " fill-opacity="1" fill-rule="nonzero"/><path fill="#df7b12" d="M 19.1875 35.84375 C 19.101562 35.84375 19.035156 35.820312 18.984375 35.78125 C 18.941406 35.730469 18.921875 35.65625 18.921875 35.5625 L 18.921875 33.84375 L 18.328125 33.84375 C 18.253906 33.84375 18.195312 33.824219 18.15625 33.78125 C 18.113281 33.742188 18.09375 33.6875 18.09375 33.625 C 18.09375 33.554688 18.113281 33.5 18.15625 33.46875 C 18.195312 33.429688 18.253906 33.40625 18.328125 33.40625 L 20.0625 33.40625 C 20.132812 33.40625 20.1875 33.429688 20.21875 33.46875 C 20.257812 33.5 20.28125 33.554688 20.28125 33.625 C 20.28125 33.6875 20.257812 33.742188 20.21875 33.78125 C 20.1875 33.824219 20.132812 33.84375 20.0625 33.84375 L 19.453125 33.84375 L 19.453125 35.5625 C 19.453125 35.65625 19.429688 35.730469 19.390625 35.78125 C 19.347656 35.820312 19.28125 35.84375 19.1875 35.84375 Z M 19.1875 35.84375 " fill-opacity="1" fill-rule="nonzero"/><path fill="#df7b12" d="M 21.847656 35.84375 C 21.585938 35.84375 21.363281 35.796875 21.175781 35.703125 C 20.996094 35.601562 20.855469 35.453125 20.753906 35.265625 C 20.660156 35.078125 20.613281 34.859375 20.613281 34.609375 C 20.613281 34.421875 20.636719 34.25 20.691406 34.09375 C 20.753906 33.9375 20.835938 33.808594 20.941406 33.703125 C 21.042969 33.601562 21.175781 33.515625 21.332031 33.453125 C 21.488281 33.390625 21.660156 33.359375 21.847656 33.359375 C 21.960938 33.359375 22.074219 33.375 22.191406 33.40625 C 22.316406 33.4375 22.417969 33.480469 22.503906 33.53125 C 22.566406 33.5625 22.605469 33.605469 22.628906 33.65625 C 22.648438 33.699219 22.652344 33.746094 22.644531 33.796875 C 22.632812 33.839844 22.613281 33.882812 22.582031 33.921875 C 22.550781 33.953125 22.507812 33.976562 22.457031 33.984375 C 22.414062 33.984375 22.367188 33.976562 22.316406 33.953125 C 22.242188 33.914062 22.167969 33.882812 22.097656 33.859375 C 22.023438 33.839844 21.949219 33.828125 21.878906 33.828125 C 21.722656 33.828125 21.589844 33.859375 21.488281 33.921875 C 21.382812 33.984375 21.304688 34.074219 21.253906 34.1875 C 21.199219 34.304688 21.175781 34.445312 21.175781 34.609375 C 21.175781 34.765625 21.199219 34.90625 21.253906 35.03125 C 21.304688 35.148438 21.382812 35.234375 21.488281 35.296875 C 21.589844 35.351562 21.722656 35.375 21.878906 35.375 C 21.949219 35.375 22.023438 35.371094 22.097656 35.359375 C 22.167969 35.339844 22.242188 35.308594 22.316406 35.265625 C 22.378906 35.234375 22.429688 35.226562 22.472656 35.234375 C 22.523438 35.246094 22.566406 35.265625 22.597656 35.296875 C 22.628906 35.328125 22.644531 35.371094 22.644531 35.421875 C 22.652344 35.464844 22.648438 35.511719 22.628906 35.5625 C 22.617188 35.605469 22.585938 35.640625 22.535156 35.671875 C 22.449219 35.726562 22.347656 35.765625 22.222656 35.796875 C 22.097656 35.828125 21.972656 35.84375 21.847656 35.84375 Z M 21.847656 35.84375 " fill-opacity="1" fill-rule="nonzero"/><path fill="#df7b12" d="M 23.464844 35.84375 C 23.371094 35.84375 23.300781 35.820312 23.261719 35.78125 C 23.21875 35.730469 23.199219 35.65625 23.199219 35.5625 L 23.199219 33.640625 C 23.199219 33.558594 23.21875 33.496094 23.261719 33.453125 C 23.300781 33.402344 23.371094 33.375 23.464844 33.375 C 23.546875 33.375 23.609375 33.402344 23.652344 33.453125 C 23.691406 33.496094 23.714844 33.558594 23.714844 33.640625 L 23.714844 34.375 L 24.839844 34.375 L 24.839844 33.640625 C 24.839844 33.558594 24.859375 33.496094 24.902344 33.453125 C 24.953125 33.402344 25.019531 33.375 25.105469 33.375 C 25.199219 33.375 25.265625 33.402344 25.308594 33.453125 C 25.347656 33.496094 25.371094 33.558594 25.371094 33.640625 L 25.371094 35.5625 C 25.371094 35.65625 25.347656 35.730469 25.308594 35.78125 C 25.265625 35.820312 25.199219 35.84375 25.105469 35.84375 C 25.019531 35.84375 24.953125 35.820312 24.902344 35.78125 C 24.859375 35.730469 24.839844 35.65625 24.839844 35.5625 L 24.839844 34.8125 L 23.714844 34.8125 L 23.714844 35.5625 C 23.714844 35.65625 23.691406 35.730469 23.652344 35.78125 C 23.609375 35.820312 23.546875 35.84375 23.464844 35.84375 Z M 23.464844 35.84375 " fill-opacity="1" fill-rule="nonzero"/><path fill="#df7b12" d="M 26.300781 35.8125 C 26.214844 35.8125 26.148438 35.792969 26.097656 35.75 C 26.054688 35.699219 26.035156 35.625 26.035156 35.53125 L 26.035156 33.671875 C 26.035156 33.589844 26.054688 33.527344 26.097656 33.484375 C 26.148438 33.433594 26.214844 33.40625 26.300781 33.40625 L 27.503906 33.40625 C 27.566406 33.40625 27.613281 33.421875 27.644531 33.453125 C 27.683594 33.484375 27.707031 33.539062 27.707031 33.609375 C 27.707031 33.671875 27.683594 33.726562 27.644531 33.765625 C 27.613281 33.796875 27.566406 33.8125 27.503906 33.8125 L 26.535156 33.8125 L 26.535156 34.375 L 27.425781 34.375 C 27.488281 34.375 27.535156 34.398438 27.566406 34.4375 C 27.605469 34.46875 27.628906 34.523438 27.628906 34.59375 C 27.628906 34.65625 27.605469 34.710938 27.566406 34.75 C 27.535156 34.78125 27.488281 34.796875 27.425781 34.796875 L 26.535156 34.796875 L 26.535156 35.40625 L 27.503906 35.40625 C 27.566406 35.40625 27.613281 35.421875 27.644531 35.453125 C 27.683594 35.484375 27.707031 35.539062 27.707031 35.609375 C 27.707031 35.671875 27.683594 35.726562 27.644531 35.765625 C 27.613281 35.796875 27.566406 35.8125 27.503906 35.8125 Z M 26.300781 35.8125 " fill-opacity="1" fill-rule="nonzero"/><path fill="#df7b12" d="M 28.507812 35.84375 C 28.433594 35.84375 28.375 35.820312 28.335938 35.78125 C 28.292969 35.730469 28.273438 35.667969 28.273438 35.59375 L 28.273438 33.640625 C 28.273438 33.546875 28.292969 33.480469 28.335938 33.4375 C 28.375 33.398438 28.429688 33.375 28.492188 33.375 C 28.554688 33.375 28.601562 33.386719 28.632812 33.40625 C 28.671875 33.429688 28.714844 33.464844 28.757812 33.515625 L 29.960938 35.046875 L 29.867188 35.046875 L 29.867188 33.625 C 29.867188 33.542969 29.886719 33.480469 29.929688 33.4375 C 29.96875 33.398438 30.03125 33.375 30.117188 33.375 C 30.1875 33.375 30.246094 33.398438 30.289062 33.4375 C 30.328125 33.480469 30.351562 33.542969 30.351562 33.625 L 30.351562 35.59375 C 30.351562 35.667969 30.328125 35.730469 30.289062 35.78125 C 30.257812 35.820312 30.210938 35.84375 30.148438 35.84375 C 30.074219 35.84375 30.015625 35.832031 29.976562 35.8125 C 29.945312 35.78125 29.90625 35.742188 29.867188 35.6875 L 28.664062 34.15625 L 28.757812 34.15625 L 28.757812 35.59375 C 28.757812 35.667969 28.734375 35.730469 28.695312 35.78125 C 28.652344 35.820312 28.589844 35.84375 28.507812 35.84375 Z M 28.507812 35.84375 " fill-opacity="1" fill-rule="nonzero"/><path fill="#000000" d="M 20.628906 31.6875 L 20.628906 31.671875 L 20.644531 31.671875 C 20.726562 31.671875 20.769531 31.636719 20.769531 31.5625 L 20.769531 30.734375 C 20.769531 30.664062 20.726562 30.625 20.644531 30.625 L 20.628906 30.625 L 20.628906 30.609375 L 21.066406 30.609375 L 21.066406 30.625 L 21.035156 30.625 C 20.949219 30.625 20.910156 30.664062 20.910156 30.734375 L 20.910156 31.5625 C 20.910156 31.636719 20.949219 31.671875 21.035156 31.671875 L 21.066406 31.671875 L 21.066406 31.6875 Z M 20.628906 31.6875 " fill-opacity="1" fill-rule="nonzero"/><path fill="#000000" d="M 21.179688 31.6875 L 21.179688 31.671875 L 21.210938 31.671875 C 21.292969 31.671875 21.335938 31.636719 21.335938 31.5625 L 21.335938 30.734375 C 21.335938 30.664062 21.292969 30.625 21.210938 30.625 L 21.179688 30.625 L 21.179688 30.609375 L 21.460938 30.609375 L 22.039062 31.46875 L 22.039062 30.734375 C 22.039062 30.664062 21.996094 30.625 21.914062 30.625 L 21.867188 30.625 L 21.867188 30.609375 L 22.226562 30.609375 L 22.226562 30.625 L 22.179688 30.625 C 22.09375 30.625 22.054688 30.664062 22.054688 30.734375 L 22.054688 31.6875 L 22.007812 31.6875 L 21.351562 30.703125 L 21.351562 31.5625 C 21.351562 31.636719 21.390625 31.671875 21.476562 31.671875 L 21.523438 31.671875 L 21.523438 31.6875 Z M 21.179688 31.6875 " fill-opacity="1" fill-rule="nonzero"/></svg>